<svg width="3046px" height="2767px" viewBox="0 0 3046.153846153844 2767.024210848912" xmlns="http://www.w3.org/2000/svg" xmlns:xlink="http://www.w3.org/1999/xlink">
  <g id="1fdcda78-8e9b-4ba3-9906-033c676436a0">
<rect style="stroke: rgb(193,193,193); stroke-width: 0; stroke-dasharray: none; stroke-linecap: butt; stroke-dashoffset: 0; stroke-linejoin: miter; stroke-miterlimit: 4; fill: rgb(255,255,255); fill-rule: nonzero; opacity: 0;" x="-1523.076923076922" y="-1383.512105424456" rx="0" ry="0" width="3046.153846153844" height="2767.024210848912" transform="matrix(1 0 0 1 1523.076923 1383.512105)"/>
</g>
<g id="08804f0e-3968-42ee-850f-cce8fd0faf5d">
<g style="">
		<g id="0403c98d-1e79-4b09-9e0d-0522f7d401a7">
<path style="stroke: rgb(193,193,193); stroke-width: 0; stroke-dasharray: none; stroke-linecap: butt; stroke-dashoffset: 0; stroke-linejoin: miter; stroke-miterlimit: 4; fill: rgb(71,84,104); fill-rule: nonzero; opacity: 1;" transform="matrix(5.71287 0 0 5.7592 1523.076975 1383.512201) matrix(1 0 0 1 0 0)  translate(-231.049973, -229.178765)" d="M 197.00 456.01 C 175.03 451.86 159.57 446.80 140.50 437.52 C 82.80 409.44 43.53 359.23 30.93 297.42 C 28.30 284.50 27.25 255.17 28.92 241.37 C 31.27 222.01 36.89 202.39 44.96 185.37 L 49.77 175.23 L 55.63 177.22 C 76.95 184.46 100.35 168.84 101.79 146.41 C 102.35 137.59 100.79 130.63 96.82 124.38 C 93.36 118.92 92.24 120.71 105.61 110.45 C 136.46 86.80 175.64 71.67 215.82 67.89 C 230.99 66.47 258.74 67.25 272.00 69.47 C 280.07 70.83 304.89 76.72 305.79 77.50 C 305.95 77.64 305.30 79.39 304.35 81.40 L 302.61 85.05 L 295.05 84.27 C 281.57 82.89 250.43 83.49 238.91 85.36 C 164.89 97.34 104.82 144.29 79.45 210.00 C 63.86 250.36 64.24 300.84 80.47 344.50 C 95.02 383.64 123.93 415.80 165.18 438.73 C 176.54 445.05 192.69 451.89 205.00 455.60 C 214.19 458.37 210.49 458.57 197.00 456.01 M 241.00 453.98 C 224.45 451.68 205.86 445.97 191.58 438.79 C 182.94 434.45 172.55 428.11 173.14 427.54 C 173.34 427.35 177.10 427.82 181.50 428.59 C 210.31 433.63 228.57 435.28 241.64 434.03 C 277.33 430.63 305.92 417.22 331.07 392.07 C 352.52 370.61 365.78 345.86 371.67 316.27 C 374.18 303.67 374.16 275.60 371.62 264.00 C 361.80 219.03 329.90 181.82 277.50 154.23 L 263.50 146.86 L 273.00 147.35 C 301.59 148.84 337.18 163.35 358.36 182.19 L 363.22 186.51 L 361.20 190.00 C 352.83 204.51 358.86 224.00 374.28 232.24 C 377.87 234.16 380.03 234.50 388.76 234.50 L 399.02 234.50 L 401.92 241.50 C 425.34 298.10 413.42 362.41 371.20 407.17 C 349.92 429.74 321.70 445.35 290.08 452.06 C 279.10 454.39 251.66 455.46 241.00 453.98 M 381.22 429.18 C 407.24 402.18 423.84 368.00 429.44 329.87 C 431.23 317.66 431.48 295.34 429.96 282.97 C 427.95 266.68 422.12 245.96 415.37 231.16 L 411.92 223.57 L 414.58 218.67 C 422.53 204.07 416.01 185.04 400.44 177.43 C 395.44 174.98 394.21 174.79 385.74 175.20 L 376.51 175.64 L 369.13 169.34 C 323.79 130.65 262.91 116.65 205.14 131.61 C 193.20 134.70 177.71 140.84 168.61 146.09 C 164.82 148.27 161.58 149.92 161.41 149.75 C 160.84 149.17 176.37 137.36 186.00 131.04 C 214.55 112.30 246.42 103.00 282.10 103.00 C 299.96 103.00 300.57 103.18 302.53 109.09 C 304.70 115.62 311.73 123.23 318.79 126.69 C 323.58 129.03 325.77 129.48 332.50 129.48 C 341.54 129.48 347.06 127.52 353.24 122.10 L 356.87 118.90 L 361.92 121.46 C 395.38 138.42 423.45 165.59 440.67 197.69 C 454.03 222.58 460.65 247.27 461.70 276.04 C 462.88 308.33 457.09 334.60 442.31 364.00 C 431.01 386.48 416.20 405.35 397.65 420.90 C 389.79 427.50 374.91 438.00 373.43 438.00 C 373.04 438.00 376.54 434.03 381.22 429.18 M 10.63 284.21 C 10.36 283.77 8.76 278.26 7.08 271.96 C -9.17 211.03 3.91 146.26 42.82 95.02 C 50.45 84.97 67.69 67.17 77.41 59.31 L 85.32 52.90 L 89.71 57.92 C 92.77 61.42 96.43 64.09 101.75 66.72 C 108.92 70.27 109.96 70.50 118.45 70.47 C 126.48 70.43 128.26 70.07 134.24 67.27 C 142.55 63.38 149.63 56.49 153.56 48.49 C 156.19 43.14 156.50 41.49 156.50 33.00 C 156.50 27.77 156.14 22.11 155.71 20.41 L 154.91 17.32 L 167.71 14.19 C 222.56 0.79 274.43 6.75 322.68 31.99 C 358.20 50.57 389.76 79.47 412.29 114.04 C 418.52 123.61 427.89 141.02 430.84 148.50 C 431.92 151.25 433.74 155.86 434.89 158.75 C 436.03 161.64 436.80 164.00 436.60 164.00 C 436.39 164.00 433.25 159.57 429.61 154.16 C 420.56 140.70 409.20 127.31 396.77 115.46 C 387.55 106.66 381.73 101.89 367.79 91.67 C 365.59 90.07 363.22 87.02 361.99 84.23 C 359.23 77.97 351.87 70.62 345.71 67.97 C 339.38 65.25 331.39 64.41 325.62 65.87 C 321.56 66.89 320.23 66.70 312.31 64.05 C 287.27 55.67 267.81 52.58 240.00 52.58 C 217.86 52.58 205.52 53.96 185.50 58.68 C 152.17 66.53 118.15 83.32 92.06 104.78 L 83.62 111.72 L 79.08 109.71 C 75.72 108.23 72.37 107.70 66.29 107.70 C 59.06 107.70 57.27 108.09 51.60 110.87 C 43.49 114.87 35.94 122.88 33.07 130.54 C 29.15 141.03 30.86 154.53 37.32 163.94 L 39.68 167.39 L 33.45 180.44 C 24.41 199.40 18.20 219.18 14.60 240.50 C 12.68 251.87 10.63 278.40 11.38 282.16 C 11.94 284.93 11.61 285.80 10.63 284.21 M 377.16 226.44 C 367.85 221.72 363.38 213.32 364.27 202.24 C 364.88 194.61 368.05 189.32 374.86 184.53 C 378.60 181.90 380.16 181.47 386.83 181.23 C 393.28 181.00 395.22 181.33 399.00 183.30 C 407.65 187.82 412.73 197.55 411.69 207.64 C 411.07 213.71 409.21 217.64 404.92 221.92 C 400.31 226.53 396.30 228.25 389.01 228.73 C 383.41 229.09 381.75 228.77 377.16 226.44 M 56.50 171.29 C 49.70 168.98 40.96 160.28 38.68 153.57 C 30.80 130.42 51.72 108.54 75.21 115.37 C 82.48 117.49 89.89 124.06 93.08 131.22 C 97.78 141.78 95.80 154.47 88.08 163.26 C 81.00 171.31 67.01 174.88 56.50 171.29 M 324.17 122.15 C 305.51 115.51 300.59 91.64 315.17 78.47 C 320.63 73.54 325.33 71.69 332.50 71.67 C 347.35 71.63 358.50 82.95 358.40 98.00 C 358.28 115.79 340.85 128.09 324.17 122.15 M 110.93 63.69 C 96.33 59.57 86.83 47.61 86.64 33.12 C 86.47 20.08 93.23 8.98 104.80 3.30 C 109.72 0.88 111.66 0.51 119.00 0.55 C 126.18 0.59 128.29 1.01 132.61 3.24 C 140.14 7.15 143.29 10.19 147.00 17.14 C 153.64 29.61 151.79 43.96 142.23 54.19 C 134.11 62.86 121.53 66.69 110.93 63.69 Z" stroke-linecap="round"/>
</g>
</g>
</g>

  </svg>